<?xml version="1.0" encoding="UTF-8"?>
<!DOCTYPE svg PUBLIC "-//W3C//DTD SVG 1.1//EN" "http://www.w3.org/Graphics/SVG/1.1/DTD/svg11.dtd">
<svg xmlns="http://www.w3.org/2000/svg" version="1.1" width="512px" height="512px" style="shape-rendering:geometricPrecision; text-rendering:geometricPrecision; image-rendering:optimizeQuality; fill-rule:evenodd; clip-rule:evenodd" xmlns:xlink="http://www.w3.org/1999/xlink">
<g><path style="opacity:0.987" fill="#3365cc" d="M 254.5,126.5 C 334.415,148.645 414.415,170.479 494.5,192C 501.235,195.525 503.735,201.025 502,208.5C 501.117,211.102 499.617,213.269 497.5,215C 477.233,220.984 456.9,226.817 436.5,232.5C 435.334,254.159 435.167,275.826 436,297.5C 446.943,305.668 450.277,316.335 446,329.5C 443.404,333.931 440.238,337.931 436.5,341.5C 440.213,361.78 443.713,382.114 447,402.5C 448.95,415.908 443.117,423.742 429.5,426C 417.183,428.467 406.683,425.301 398,416.5C 396.869,414.275 396.036,411.942 395.5,409.5C 399.344,386.598 403.344,363.764 407.5,341C 391.416,326.327 391.583,311.827 408,297.5C 408.5,278.503 408.667,259.503 408.5,240.5C 356.57,254.816 304.57,268.816 252.5,282.5C 173.161,260.332 93.8277,238.165 14.5,216C 8.08309,210.525 6.91642,204.025 11,196.5C 12.214,194.951 13.714,193.785 15.5,193C 95.3234,170.964 174.99,148.797 254.5,126.5 Z"/></g>
<g><path style="opacity:0.992" fill="#3365cc" d="M 127.5,271.5 C 170.163,283.166 212.83,294.833 255.5,306.5C 298.17,294.833 340.837,283.166 383.5,271.5C 383.667,302.502 383.5,333.502 383,364.5C 378.975,374.526 372.142,382.026 362.5,387C 341.438,397.85 319.105,404.516 295.5,407C 256.707,412.006 218.374,409.673 180.5,400C 163.403,395.703 148.236,387.869 135,376.5C 131.644,373.124 129.31,369.124 128,364.5C 127.5,333.502 127.333,302.502 127.5,271.5 Z"/></g>
</svg>
